<svg id="Layer_1" data-name="Layer 1" xmlns="http://www.w3.org/2000/svg" viewBox="0 0 18 18"><defs><style>.cls-1{fill:#84817b;}</style></defs><title>Instagram_icon</title><path class="cls-1" d="M647.78,621.94c2.41,0,2.69,0,3.64,0,2.44.11,3.58,1.27,3.69,3.69,0,1,0,1.23,0,3.63s0,2.69,0,3.64c-.11,2.42-1.25,3.58-3.69,3.69-.95,0-1.23.05-3.64.05s-2.68,0-3.63-.05c-2.45-.11-3.58-1.27-3.69-3.69-.05-1-.05-1.23-.05-3.64s0-2.68.05-3.63c.11-2.42,1.25-3.58,3.69-3.69C645.1,622,645.38,621.94,647.78,621.94Zm0-1.63c-2.44,0-2.75,0-3.71.06-3.26.15-5.08,2-5.23,5.23-.05,1-.06,1.27-.06,3.71s0,2.75.06,3.71c.15,3.27,2,5.09,5.23,5.24,1,0,1.27,0,3.71,0s2.76,0,3.72,0c3.26-.15,5.08-2,5.23-5.24,0-1,0-1.26,0-3.71s0-2.75,0-3.71c-.15-3.26-2-5.08-5.23-5.23C650.54,620.32,650.23,620.31,647.78,620.31Zm0,4.38a4.63,4.63,0,1,0,4.63,4.62A4.62,4.62,0,0,0,647.78,624.69Zm0,7.62a3,3,0,1,1,3-3A3,3,0,0,1,647.78,632.31Zm4.81-8.88a1.08,1.08,0,1,0,1.08,1.08A1.08,1.08,0,0,0,652.59,623.43Z" transform="translate(-638.78 -620.31)"/></svg>