<svg xmlns="http://www.w3.org/2000/svg" viewBox="0 0 841.44 248.1"><defs><style>.cls-1{fill:#092827;}.cls-2{fill:#fff;}.cls-3{fill:#348699;}</style></defs><title>singh_jagdeep_fip_logo_4</title><g id="box"><path id="dark_blue_box" class="cls-1" d="M38.31,139.39c-.59-23.7-1-47.41-1.89-71.1-.24-6.43,1.79-10,7.93-12.3C82,41.8,119.53,27.24,157.21,13.1a17.91,17.91,0,0,1,10.91-.25C206.46,25.08,244.69,37.67,283,50.05c5.72,1.86,8.24,5.2,8.37,11.43q1.48,71.12,3.55,142.21c.19,6.69-2,10.54-8.34,12.93-37.42,14.14-74.73,28.6-112.19,42.65a17.75,17.75,0,0,1-10.84.19C125.2,247.19,87,234.52,48.69,222.21c-6.12-2-8.66-5.14-8.74-11.71C39.69,186.8,38.9,163.1,38.31,139.39Z" transform="translate(-36.4 -12.12)"/><path id="White_inner" class="cls-2" d="M277.81,69.09c-2.84.92-5.06,1.54-7.2,2.36-30.25,11.6-60.43,23.36-90.78,34.69-5,1.85-6.19,4.27-6,9.24,1.18,40,2.1,80,3.1,120,.05,2.21.11,4.43.17,7a34,34,0,0,0,3.9-.82c32-12.24,64-24.6,96.15-36.64,4.58-1.72,4.4-4.65,4.3-8.31q-1.57-60.37-3.05-120.74C278.31,73.89,278,71.84,277.81,69.09Z" transform="translate(-36.4 -12.12)"/><path id="side_white" class="cls-2" d="M162.64,242.91c-.1-3.83-.16-6.39-.22-8.94-1-42.2-2-84.4-3.27-126.58-.2-6.76,2-10.19,8.49-12.59,29.52-10.94,58.85-22.39,88.24-33.68,1.8-.69,3.48-1.66,6.6-3.16-12-3.92-22.25-7.47-32.67-10.56a12.82,12.82,0,0,0-7.46.65C190.14,59.93,158,72,125.8,83.92c-5.23,1.94-7.4,5.33-7.11,10.82.35,6.86.5,13.74.51,20.62,0,5.88-2.48,7.73-8.06,6-4.52-1.37-9.35-2.44-13.26-4.9A13.7,13.7,0,0,1,92.15,108c-1-6.75-.19-13.75-.88-20.58-.72-7,1.82-10.89,8.55-13.33,18.7-6.76,37.22-14,55.8-21.15,13.45-5.15,26.88-10.37,42.09-16.24-11.56-3.7-21.32-7-31.2-9.86-1.8-.52-4.2.27-6.12,1C126.28,40.74,92.21,53.75,58.08,66.58c-3.86,1.45-5.34,3.36-5.22,7.7q1.86,64,3.19,128c.1,4.6,1.67,6.56,6,7.9,19.2,6,38.3,12.38,57.43,18.62Z" transform="translate(-36.4 -12.12)"/></g><g id="Letters"><path class="cls-3" d="M298.66,103.48h18.19V233.81H298.66Zm10.75,113.39h35.32q13.89,0,20.26-5.29t6.36-14.88v-.27a26.1,26.1,0,0,0-2.28-11.38,15.8,15.8,0,0,0-7.22-7.3q-4.92-2.56-12.64-2.56h-39.8V158.7h39.8q10.14,0,15.29-4.75t5.15-14.08q0-9.76-5.74-14.61t-17.21-4.84H309.41V103.48H350q12.64,0,21.16,4.3A28.62,28.62,0,0,1,383.9,120q4.22,7.89,4.22,18.83a30.78,30.78,0,0,1-2.6,12.59,26,26,0,0,1-7.94,10,29.6,29.6,0,0,1-13.22,5.6A28.75,28.75,0,0,1,378,172.64a29.09,29.09,0,0,1,8.78,11.07,34,34,0,0,1,3.05,14.34v.27A36.56,36.56,0,0,1,385.16,217a31.29,31.29,0,0,1-13.36,12.46,44.33,44.33,0,0,1-20.26,4.39H309.41Z" transform="translate(-36.4 -12.12)"/><path class="cls-3" d="M419.4,228q-8.52-7.12-8.51-21.65,0-13.8,7.79-20.7t23.58-6.9H468.7l1.26,14.7H442.35q-7.17,0-10.71,3.18t-3.54,9.72q0,7.1,4.7,10.49t14.3,3.41q10.48,0,15.64-2.24c3.44-1.49,5.16-3.83,5.16-7l1.88,13.08a21.48,21.48,0,0,1-6,6.19,26.17,26.17,0,0,1-8.2,3.63,41.7,41.7,0,0,1-10.49,1.21Q427.91,235.16,419.4,228Zm48.5-53.2q0-9.14-4.89-14.21t-13.85-5.06a35.75,35.75,0,0,0-10.89,1.7,32.43,32.43,0,0,0-9.46,4.75l-13.35-9.14A35,35,0,0,1,429.4,143a50.45,50.45,0,0,1,19.22-3.54q11.56,0,19.81,4.08A28.28,28.28,0,0,1,481,155.34q4.31,7.75,4.31,18.69v59.78H467.9Z" transform="translate(-36.4 -12.12)"/><path class="cls-3" d="M513.07,140.77h18.29v93H513.07Zm45.09,17.57a22,22,0,0,0-8.51-1.53q-8.7,0-13.49,4.8t-4.8,13.31L529.48,157a34.25,34.25,0,0,1,11.11-13,26.24,26.24,0,0,1,15.06-4.62,34.29,34.29,0,0,1,11.52,1.84,25.84,25.84,0,0,1,9,5.43l-11.92,16.13A15.42,15.42,0,0,0,558.16,158.34Z" transform="translate(-36.4 -12.12)"/><path class="cls-3" d="M584.25,140.77h42v16.49h-42ZM599.08,228q-5.24-6.22-5.24-18.42V113.7h18.28v96.09a8.78,8.78,0,0,0,1.35,5.25,4.59,4.59,0,0,0,3.94,1.83h8.79v17.39H615.62Q604.33,234.26,599.08,228Z" transform="translate(-36.4 -12.12)"/><path class="cls-3" d="M667.34,230.32a32.4,32.4,0,0,1-13.94-14.21q-4.8-9.36-4.79-22.63V183q0-13.8,4.61-23.58a33.11,33.11,0,0,1,13.4-14.88q8.79-5.1,21.16-5.11,11.65,0,19.9,5.83t12.59,16.85q4.35,11,4.35,26.45v6.09H661.87v-14.7h45.36q-.81-11.38-5.87-17.7a16.49,16.49,0,0,0-13.58-6.32q-10.39,0-16.09,6.81T666,182v11.84q0,11.55,6.09,17.74t17.3,6.19a29,29,0,0,0,11-2.24,31.8,31.8,0,0,0,9.77-6.28l12,12a50.46,50.46,0,0,1-15.51,10.27,44.14,44.14,0,0,1-17.3,3.63Q676.49,235.16,667.34,230.32Z" transform="translate(-36.4 -12.12)"/><path class="cls-3" d="M749.72,140.77H768v93H749.72Zm45.09,17.57a22,22,0,0,0-8.52-1.53q-8.68,0-13.49,4.8T768,174.92L766.12,157a34.27,34.27,0,0,1,11.12-13,26.24,26.24,0,0,1,15.06-4.62,34.29,34.29,0,0,1,11.52,1.84,25.93,25.93,0,0,1,9,5.43L800.9,162.82A15.32,15.32,0,0,0,794.81,158.34Z" transform="translate(-36.4 -12.12)"/><path d="M865.06,121.05H876v57.51h-8.86V134.7l.4,2.53-12.58,34.13h-7.6L834.77,138l.39-3.32v43.86H826.3V121.05h10.92l13.92,38.37Z" transform="translate(-36.4 -12.12)"/><path d="M833.58,204.47v30.89H825.3V204.47Zm44.26-3.57v8.63H825.3v-8.64Zm-22.33,3.57v26.92h-8.24V204.47Zm22.33,0v30.9h-8.28v-30.9Z" transform="translate(-36.4 -12.12)"/></g></svg>