<svg id="book" xmlns="http://www.w3.org/2000/svg" viewBox="0 0 442.97 389.03"><defs><style>.cls-1{fill:#fff;}.cls-2{fill:none;}</style></defs><title>singh_jagdeep_fip_icon_book</title><path id="outter_book" class="cls-1" d="M814.26,427.31s-69.91,4.82-109.69,24.92l-25.31,11.24s-13.86,8.44-23.84,16.87a136.2,136.2,0,0,0-35.83-22.9s-82-36.16-176-33.15h-8.44V757.16s58.76-1.33,70.75,3.56c0,0,69.31,9.77,88.85,19.1,0,0,50.65,20,61.89,33.32,0,0,5.64-7.55,8.75-9.33,0,0,53.31-30.65,87.07-34.65,0,0,78.64-13.33,90.63-12a126.68,126.68,0,0,0,13.77,0c5.78-.44,0,0,13.33-.79h7.93V424.12S846.2,424.29,814.26,427.31ZM627.1,738.9c-17.56-10.25-40-18-40-18C541.24,706.7,490,704.26,490,704.26V480.35h9.27l23.42,2.92C561.25,485.71,627.1,514,627.1,514ZM822,703.32c-5-.83-52.41,5.82-52.41,5.82-20.38,2.5-69,20.38-69,20.38-5,1.67-16.64,9.38-16.64,9.38v-224l5.83-2.9c37-19.15,101.07-29.55,101.07-29.55a124.69,124.69,0,0,1,31.2-2.1Z" transform="translate(-435.17 -424.11)"/><path id="inner_right" class="cls-2" d="M822,480.35v223c-5-.83-52.41,5.82-52.41,5.82-20.38,2.5-69,20.38-69,20.38-5,1.67-16.64,9.38-16.64,9.38v-224l5.83-2.9c37-19.15,101.07-29.55,101.07-29.55A124.69,124.69,0,0,1,822,480.35Z" transform="translate(-435.17 -424.11)"/><path id="inner_left" class="cls-2" d="M627.1,514V738.9c-17.56-10.25-40-18-40-18C541.24,706.7,490,704.26,490,704.26V480.35h9.27l23.42,2.92C561.25,485.71,627.1,514,627.1,514Z" transform="translate(-435.17 -424.11)"/></svg>