<svg id="personal_items_icon" xmlns="http://www.w3.org/2000/svg" viewBox="0 0 258.13 352.22"><defs><style>.cls-1,.cls-2{fill:none;stroke:#fff;stroke-miterlimit:10;}.cls-1{stroke-width:4px;}.cls-3{fill:#fff;}.cls-4{fill:#e5e5e5;}</style></defs><title>singh_jagdeep_fip_icon_personal_items</title><g id="bag"><path id="lower_bag" class="cls-1" d="M472,327.5h0a4,4,0,0,1-.14,1.08c-5.46,20.38-10.28,100.6-10.66,107a3.84,3.84,0,0,0,0,.83c4.08,32.2,103.54,54.62,110,56a3.62,3.62,0,0,0,.66.09c61.21,4,128.82-35.88,136.94-40.82a3.91,3.91,0,0,0,1.34-1.28c14.18-22.73-4.72-106.48-8.88-124a4.18,4.18,0,0,0-4.07-3.21h-221A4.2,4.2,0,0,0,472,327.5Z" transform="translate(-459.17 -142.63)"/><path id="upper_bag" class="cls-1" d="M712.07,319.87V214.52A34.66,34.66,0,0,0,677.5,180H498.13a34.67,34.67,0,0,0-34.57,34.57V319.87Z" transform="translate(-459.17 -142.63)"/><path id="outter_holder" class="cls-2" d="M623.39,179.88c0-.38,0-.76,0-1.15a35.6,35.6,0,1,0-71.19,0c0,.39,0,.77,0,1.15Z" transform="translate(-459.17 -142.63)"/><path id="inner_holder" class="cls-2" d="M609.17,178.51c0-.23,0-.46,0-.69a21.37,21.37,0,0,0-42.74,0c0,.23,0,.46,0,.69Z" transform="translate(-459.17 -142.63)"/><path id="left_strap" class="cls-3" d="M506.88,336.31V297.62c7.66-10.88,15.72-9.67,15.72-9.67,7.26.4,12.9,9.67,12.9,9.67v38.69Z" transform="translate(-459.17 -142.63)"/><path id="right_strap" class="cls-3" d="M638.63,336.31V297.62c7.66-10.88,15.72-9.67,15.72-9.67,7.25.4,12.9,9.67,12.9,9.67v38.69Z" transform="translate(-459.17 -142.63)"/><path id="pocket" class="cls-4" d="M559.49,349.47h60.44a41.39,41.39,0,0,1,41.27,41.27h0A41.39,41.39,0,0,1,619.93,432H559.49a41.39,41.39,0,0,1-41.26-41.26h0A41.39,41.39,0,0,1,559.49,349.47Z" transform="translate(-459.17 -142.63)"/></g></svg>