<svg xmlns="http://www.w3.org/2000/svg" viewBox="0 0 529.35 473.19"><defs><style>.cls-1{fill:#fff;opacity:0.84;}.cls-2{fill:#7c7c7c;}.cls-3{fill:#f7f7f7;}</style></defs><title>singh_jagdeep_fip_icon_art</title><g id="art_icon"><path id="art_board" class="cls-1" d="M645.61,188.06c-113.88,0-207.2,88-215.63,199.75a14.72,14.72,0,0,1,9.58,4.74,14.43,14.43,0,0,1,6.58,3.65,14.61,14.61,0,0,1,6.84,6.24,15.34,15.34,0,0,1,7.32,9.61,16,16,0,0,1,6.08,10.38,15.74,15.74,0,0,1,1.62,2.85,16.23,16.23,0,0,1,3.63,6.54,16.78,16.78,0,0,1,3.2,7.11,18.21,18.21,0,0,1,1.76,6.63,46.57,46.57,0,0,1,5.09,15.07A43,43,0,0,1,483.75,472c4.23,20.57,1,41.41-14.26,57.72a215.92,215.92,0,0,0,176.12,90.82c119.44,0,216.25-96.82,216.25-216.25S765.05,188.06,645.61,188.06ZM534.73,362.64c-25.38,0-44.17-20.75-45.27-45.28s21.59-45.27,45.27-45.27c25.38,0,44.18,20.74,45.27,45.27S558.41,362.64,534.73,362.64ZM644.37,310c-25.38,0-44.17-20.74-45.27-45.27s21.59-45.28,45.27-45.28c25.38,0,44.18,20.75,45.28,45.28S668.06,310,644.37,310ZM754,359.79c-25.39,0-44.18-20.75-45.28-45.28s21.59-45.27,45.28-45.27c25.38,0,44.17,20.75,45.27,45.27S777.7,359.79,754,359.79Z" transform="translate(-429.98 -188.06)"/><path id="brush_body" class="cls-2" d="M571.68,648.8s1.73,6.63,10.57,11.16c20.45,10.46,91.63-45.93,107.5-58.62,30.06-24.06,48.29-40.58,76.5-66.17,6.89-6.25,21.59-21.35,51-51.55,0,0,13.9-14.28,32.46-45.59,2.35-4,6.66-11.52,6.59-21.55a40.67,40.67,0,0,0-3.44-15.34c-4.64-11.82-12.27-18.94-16.19-22.53a78.27,78.27,0,0,0-18.6-12.05,44.53,44.53,0,0,0-17.66-4.1c-8.46,0-15.74,5.58-19,8.18-21.55,17.08-32.32,25.62-34.19,27.54-33.41,34.42-29.43,26.42-49.85,49.1-9.23,10.25-19.74,23.73-40.76,50.65-22.55,28.89-34,43.65-44.13,59.2a414.89,414.89,0,0,0-27.52,49.66c-2.6,5.51-6.55,13-10.18,23.22-1,2.76-1.72,5.09-2.22,6.7l-1,5.38Z" transform="translate(-429.98 -188.06)"/><path id="brush_head" class="cls-3" d="M800.4,362.46c-2.35-10-5.32-22.58-2.4-37,5-24.68,25.46-45.91,46.2-51.69,4.43-1.23,5.88-.93,13.16-3,4.95-1.43,11.16-3.56,32.71-14.2,15.95-7.87,19-9.87,20.87-11.2,7.36-5.13,12.31-8.57,16.79-15.06s4.73-10.49,7.64-10.82c5-.58,10.15,10.69,12.37,15.53,3,6.48,4.11,11.67,5.87,19.71a140.83,140.83,0,0,1,3.27,21.1c.59,8.24-.19,8.47.49,17.21.94,11.9,2.42,11.69,1.83,17.17-.82,7.67-3.66,7.61-6.08,18.73-1.39,6.37-.6,7-2.27,13.31-.36,1.38-1,3.45-4.91,13.39-3.4,8.57-5.11,12.86-6.19,14.76-2,3.42-1.77,2.22-10.21,13.54-4.09,5.48-8.92,12.19-8.92,12.19h0s-8.51,5.22-16.94,9.76c-6.55,3.53-9.82,5.29-14.37,7-4.83,1.86-10,3.81-17.09,4.47a57,57,0,0,1-15.93-.86c-4.52-.88-17.75-4.94-13.35-3.59h0l-20.05-6h0L810.59,394h0S803.58,375.92,800.4,362.46Z" transform="translate(-429.98 -188.06)"/></g></svg>