<svg id="Layer_1" data-name="Layer 1" xmlns="http://www.w3.org/2000/svg" viewBox="0 0 18 18"><defs><style>.cls-1{fill:#84817b;}</style></defs><title>twitter</title><path class="cls-1" d="M653,431.16h-10.5a3.75,3.75,0,0,0-3.75,3.75v10.5a3.75,3.75,0,0,0,3.75,3.75H653a3.74,3.74,0,0,0,3.75-3.75v-10.5A3.74,3.74,0,0,0,653,431.16Zm-.1,6.92a7,7,0,0,1-10.77,6.22,4.91,4.91,0,0,0,3.64-1,2.48,2.48,0,0,1-2.3-1.71,2.47,2.47,0,0,0,1.12,0,2.46,2.46,0,0,1-2-2.44,2.46,2.46,0,0,0,1.12.3,2.46,2.46,0,0,1-.77-3.28,7,7,0,0,0,5.08,2.57,2.46,2.46,0,0,1,4.19-2.25,5,5,0,0,0,1.57-.59,2.52,2.52,0,0,1-1.08,1.36,4.84,4.84,0,0,0,1.41-.39A5,5,0,0,1,652.93,438.08Z" transform="translate(-638.78 -431.16)"/></svg>